<svg xmlns="http://www.w3.org/2000/svg" width="18" height="18" viewBox="0 0 18 18" fill="none">
  <path fill-rule="evenodd" clip-rule="evenodd" d="M17 0H1C0.45 0 0 0.45 0 1V7C0 7.55 0.45 8 1 8H17C17.55 8 18 7.55 18 7V1C18 0.45 17.55 0 17 0ZM1 10H17C17.55 10 18 10.45 18 11V17C18 17.55 17.55 18 17 18H1C0.45 18 0 17.55 0 17V11C0 10.45 0.45 10 1 10ZM2 14C2 15.1 2.9 16 4 16C5.1 16 6 15.1 6 14C6 12.9 5.1 12 4 12C2.9 12 2 12.9 2 14ZM2 4C2 5.1 2.9 6 4 6C5.1 6 6 5.1 6 4C6 2.9 5.1 2 4 2C2.9 2 2 2.9 2 4Z" fill="url(#paint0_linear_1160_1411)"/>
  <defs>
    <linearGradient id="paint0_linear_1160_1411" x1="9" y1="0" x2="9" y2="18" gradientUnits="userSpaceOnUse">
      <stop stop-color="#707070"/>
      <stop offset="1"/>
    </linearGradient>
  </defs>
</svg>