<svg xmlns="http://www.w3.org/2000/svg" width="33" height="18" viewBox="0 0 33 18" fill="none">
  <path d="M16.3288 9.46295C15.8166 9.21863 15.2399 9.1885 14.7051 9.37774C14.1704 9.56699 13.7415 9.95348 13.4972 10.4657C13.2528 10.9779 13.2227 11.5545 13.4124 12.0893C13.7208 12.9593 14.5418 13.504 15.4165 13.504C15.6514 13.504 15.89 13.4649 16.1235 13.382C16.6583 13.1928 17.0872 12.8063 17.3315 12.2946C17.5758 11.7824 17.606 11.2057 17.4162 10.6714C17.227 10.1366 16.8405 9.70775 16.3288 9.46342V9.46295ZM16.108 11.7108C16.0195 11.8958 15.8646 12.0357 15.6711 12.1044C15.2715 12.2456 14.8318 12.0361 14.6901 11.6365C14.5484 11.2372 14.7583 10.7971 15.158 10.6554C15.3515 10.5867 15.56 10.598 15.7455 10.686C15.9305 10.7745 16.0703 10.9294 16.1391 11.1233C16.2078 11.3168 16.1965 11.5254 16.1085 11.7108H16.108Z" fill="#191919"/>
  <path d="M10.91 8.62299C11.4448 8.43374 11.8737 8.04725 12.118 7.53506C12.3623 7.02288 12.3924 6.44619 12.2027 5.91141C11.812 4.80748 10.5955 4.2275 9.49161 4.6187C8.38768 5.0099 7.8077 6.22588 8.1989 7.32981C8.38815 7.8646 8.77464 8.29346 9.28636 8.53778C9.57635 8.67619 9.88705 8.74586 10.1992 8.74586C10.4383 8.74586 10.6779 8.7049 10.91 8.62299ZM9.47655 6.87741C9.33485 6.47774 9.54481 6.03757 9.94401 5.89635C10.0287 5.86622 10.1149 5.8521 10.2001 5.8521C10.5165 5.8521 10.814 6.04934 10.9255 6.36428C11.0672 6.76349 10.8573 7.20365 10.4576 7.34535C10.0579 7.48705 9.61824 7.27662 9.47655 6.87741Z" fill="#191919"/>
  <path d="M15.8011 4.42054C15.4881 4.21576 15.0677 4.30379 14.8629 4.61731L9.61768 12.6424C9.4129 12.9559 9.50093 13.3758 9.81446 13.5806C9.92885 13.6554 10.0574 13.6912 10.1845 13.6912C10.4057 13.6912 10.6223 13.5829 10.7527 13.3843L15.9979 5.35923C16.2027 5.04571 16.1146 4.62579 15.8011 4.42101V4.42054Z" fill="#191919"/>
  <path d="M23.51 13.9056L23.51 13.1237C23.51 12.7494 23.2068 12.4458 22.8321 12.4458C22.4574 12.4458 22.1542 12.749 22.1542 13.1237L22.1542 13.9056C22.1542 14.2799 22.4574 14.5835 22.8321 14.5835C23.2068 14.5835 23.51 14.2804 23.51 13.9056Z" fill="#191919"/>
  <path d="M22.1542 10.1144L22.1542 10.8964C22.1542 11.2706 22.4574 11.5742 22.8321 11.5742C23.2068 11.5742 23.51 11.2711 23.51 10.8964L23.51 10.1144C23.51 9.74016 23.2068 9.43652 22.8321 9.43652C22.4574 9.43652 22.1542 9.73969 22.1542 10.1144Z" fill="#191919"/>
  <path d="M22.1542 7.10417L22.1542 7.8861C22.1542 8.26035 22.4574 8.56399 22.8321 8.56399C23.2068 8.56399 23.51 8.26082 23.51 7.8861L23.51 7.10417C23.51 6.72991 23.2068 6.42627 22.8321 6.42627C22.4574 6.42627 22.1542 6.72944 22.1542 7.10417Z" fill="#191919"/>
  <path d="M22.8321 5.55423C23.2064 5.55423 23.51 5.25106 23.51 4.87633L23.51 4.0944C23.51 3.72014 23.2068 3.4165 22.8321 3.4165C22.4574 3.4165 22.1542 3.71967 22.1542 4.0944L22.1542 4.87633C22.1542 5.25059 22.4574 5.55423 22.8321 5.55423Z" fill="#191919"/>
  <path d="M32.2544 16.044L32.2544 12.2115C32.2544 11.6636 31.8434 11.197 31.2988 11.1264C30.2348 10.989 29.4331 10.0752 29.4331 9.00047C29.4331 7.92572 30.2353 7.01198 31.2992 6.87452C31.8439 6.8039 32.2549 6.33738 32.2549 5.78941L32.2549 1.95648C32.2544 0.877498 31.3769 -3.83772e-08 30.2979 -8.55411e-08L2.70195 -1.2918e-06C1.62297 -1.33896e-06 0.74547 0.877496 0.74547 1.95648L0.74547 5.78894C0.74547 6.33691 1.15644 6.80343 1.70111 6.87404C2.76503 7.01151 3.56674 7.92525 3.56674 9C3.56674 10.0747 2.76456 10.9885 1.70064 11.126C1.15597 11.1966 0.744998 11.6631 0.744998 12.2111L0.744998 16.0435C0.744998 17.1225 1.62249 18 2.70148 18L30.2979 18C31.3769 18 32.2544 17.1225 32.2544 16.0435L32.2544 16.044ZM2.10126 16.044L2.10126 12.4337C3.72491 12.115 4.923 10.6773 4.923 9C4.923 7.32268 3.72538 5.88498 2.10126 5.56627L2.10126 1.95648C2.10126 1.62506 2.37101 1.35532 2.70242 1.35532L22.1542 1.35532L22.1542 1.86657C22.1542 2.24082 22.4574 2.54446 22.8321 2.54446C23.2069 2.54446 23.51 2.24129 23.51 1.86657L23.51 1.35532L30.2979 1.35532C30.6293 1.35532 30.8991 1.62507 30.8991 1.95648L30.8991 5.56674C29.2754 5.88545 28.0774 7.32315 28.0774 9.00047C28.0774 10.6778 29.275 12.1155 30.8991 12.4342L30.8991 16.0445C30.8991 16.3759 30.6293 16.6456 30.2979 16.6456L23.51 16.6456L23.51 16.1344C23.51 15.7601 23.2069 15.4565 22.8321 15.4565C22.4574 15.4565 22.1542 15.7596 22.1542 16.1344L22.1542 16.6456L2.70195 16.6456C2.37053 16.6456 2.10079 16.3759 2.10079 16.0445L2.10126 16.044Z" fill="#191919"/>
</svg>