<svg xmlns="http://www.w3.org/2000/svg" width="17" height="18" viewBox="0 0 17 18" fill="none">
  <path d="M14.6185 9.74471H9.71814V17.9998H14.6185C14.9766 17.9998 15.267 17.7094 15.267 17.3513V10.3926C15.267 10.0345 14.9766 9.74414 14.6185 9.74414V9.74471Z" fill="url(#paint0_linear_1160_6251)"/>
  <path d="M1.73328 10.3921V17.3513C1.73328 17.7094 2.02366 17.9998 2.38176 17.9998H7.28215V9.74414H2.38176C2.02366 9.74414 1.73328 10.0345 1.73328 10.3927V10.3921Z" fill="url(#paint1_linear_1160_6251)"/>
  <path d="M0.785767 6.20755V8.27298C0.785767 8.63706 1.07881 8.93229 1.4402 8.93229H7.27969L7.28201 5.54883H1.4402C1.07881 5.54883 0.785767 5.84406 0.785767 6.20813V6.20755Z" fill="url(#paint2_linear_1160_6251)"/>
  <path d="M15.5605 5.54941H9.71814L9.73201 8.93229H15.5611C15.9219 8.93229 16.2144 8.63711 16.2144 8.2731V6.20802C16.2144 5.84401 15.9219 5.54883 15.5611 5.54883L15.5605 5.54941Z" fill="url(#paint3_linear_1160_6251)"/>
  <path d="M3.51428 4.89589C3.59009 4.93972 3.70987 5.00752 4.05764 5.00752H12.8884C13.2709 5.00752 13.4225 4.93388 13.5035 4.88537C14.088 4.53704 14.4548 3.8059 14.4548 2.87313C14.4548 2.17939 14.2378 1.488 13.8594 0.975438C13.3953 0.346576 12.7073 0 11.9221 0C11.8578 0 11.7919 0.00233778 11.7247 0.00701333C9.66418 0.150787 8.82687 2.12679 8.49993 3.4003C8.17299 2.12679 7.33627 0.150787 5.27569 0.00701333C5.20857 0.00233778 5.14318 0 5.07837 0C4.29315 0 3.60513 0.346576 3.14047 0.975438C2.76204 1.48741 2.54504 2.17939 2.54504 2.87313C2.54504 3.81525 2.91943 4.55165 3.51428 4.89589ZM11.8058 1.19285C11.8451 1.18993 11.8839 1.18876 11.9221 1.18876C12.3381 1.18876 12.6732 1.35591 12.9168 1.68671C13.1465 1.99763 13.2784 2.4307 13.2784 2.87371C13.2784 3.23724 13.1534 3.92396 12.6807 3.92396H9.58721C9.79958 2.96956 10.3759 1.29338 11.8063 1.19344L11.8058 1.19285ZM4.08367 1.68612C4.32729 1.35591 4.66232 1.18818 5.07837 1.18818C5.11656 1.18818 5.15476 1.18993 5.19468 1.19227C6.62511 1.29162 7.20086 2.96839 7.41381 3.92279H4.32034C3.84759 3.92279 3.7226 3.23607 3.7226 2.87254C3.7226 2.42954 3.85453 1.99705 4.08425 1.68554L4.08367 1.68612Z" fill="url(#paint4_linear_1160_6251)"/>
  <defs>
    <linearGradient id="paint0_linear_1160_6251" x1="12.4926" y1="9.74414" x2="12.4926" y2="17.9998" gradientUnits="userSpaceOnUse">
      <stop stop-color="#707070"/>
      <stop offset="1"/>
    </linearGradient>
    <linearGradient id="paint1_linear_1160_6251" x1="4.50771" y1="9.74414" x2="4.50771" y2="17.9998" gradientUnits="userSpaceOnUse">
      <stop stop-color="#707070"/>
      <stop offset="1"/>
    </linearGradient>
    <linearGradient id="paint2_linear_1160_6251" x1="4.03389" y1="5.54883" x2="4.03389" y2="8.93229" gradientUnits="userSpaceOnUse">
      <stop stop-color="#707070"/>
      <stop offset="1"/>
    </linearGradient>
    <linearGradient id="paint3_linear_1160_6251" x1="12.9663" y1="5.54883" x2="12.9663" y2="8.93229" gradientUnits="userSpaceOnUse">
      <stop stop-color="#707070"/>
      <stop offset="1"/>
    </linearGradient>
    <linearGradient id="paint4_linear_1160_6251" x1="8.49993" y1="0" x2="8.49993" y2="5.00752" gradientUnits="userSpaceOnUse">
      <stop stop-color="#707070"/>
      <stop offset="1"/>
    </linearGradient>
  </defs>
</svg>