<svg width="25" height="25" viewBox="0 0 25 25" fill="none" xmlns="http://www.w3.org/2000/svg">
<path id="Combo 2" d="M22.486 13.8555C22.4291 11.9156 21.8196 10.0573 20.7125 8.46272C19.7349 7.05461 18.4305 5.93357 16.9086 5.18557C16.8656 2.79173 14.9049 0.856934 12.5003 0.856934C10.0957 0.856934 8.13501 2.7911 8.09138 5.18557C4.77061 6.81687 2.62336 10.1421 2.51461 13.8555C1.02873 14.5662 0 16.0837 0 17.837C0 20.2688 1.97843 22.2466 4.40957 22.2466C5.03427 22.2466 5.62862 22.1157 6.16733 21.8805C7.95038 23.3449 10.1722 24.1434 12.4997 24.1434C14.8271 24.1434 17.0515 23.3461 18.8333 21.8805C19.372 22.1151 19.9664 22.2459 20.5904 22.2459C23.0222 22.2459 25 20.2675 25 17.8364C25 16.083 23.9713 14.5656 22.486 13.8555ZM12.5003 3.06551C13.7143 3.06551 14.7019 4.05314 14.7019 5.26714C14.7019 6.48113 13.7143 7.46876 12.5003 7.46876C11.2863 7.46876 10.2987 6.48113 10.2987 5.26714C10.2987 4.05314 11.2863 3.06551 12.5003 3.06551ZM2.20858 17.837C2.20858 16.623 3.19621 15.6354 4.4102 15.6354C5.62419 15.6354 6.61183 16.623 6.61183 17.837C6.61183 19.051 5.62419 20.0386 4.4102 20.0386C3.19621 20.0386 2.20858 19.051 2.20858 17.837ZM7.94848 20.4661C8.49604 19.7313 8.8204 18.8215 8.8204 17.837C8.8204 15.5197 7.02408 13.6146 4.751 13.4401C4.98179 10.904 6.43542 8.65177 8.63894 7.39415C9.39073 8.75357 10.8399 9.67671 12.5003 9.67671C14.1607 9.67671 15.6099 8.75357 16.3617 7.39415C17.3651 7.967 18.2295 8.75799 18.8984 9.7216C19.6679 10.83 20.1289 12.1034 20.2503 13.4394C17.9772 13.614 16.1809 15.519 16.1809 17.8364C16.1809 18.8208 16.5052 19.7313 17.0528 20.4661C15.7357 21.4195 14.1575 21.9349 12.5003 21.9349C10.8431 21.9349 9.2668 21.4195 7.94848 20.4661ZM20.5911 20.0386C19.3771 20.0386 18.3894 19.051 18.3894 17.837C18.3894 16.623 19.3771 15.6354 20.5911 15.6354C21.8051 15.6354 22.7927 16.623 22.7927 17.837C22.7927 19.051 21.8051 20.0386 20.5911 20.0386Z" fill="#191919"/>
</svg>
