<svg width="169" height="37" viewBox="0 0 169 37" fill="none" xmlns="http://www.w3.org/2000/svg">
<path d="M94.1783 21.6261L113.487 0H23.4833C21.7602 0 20.1188 0.721493 19.0155 1.96019L0 23.5416H89.4721C91.2565 23.5416 92.9592 22.8456 94.1715 21.6197L94.1783 21.6261ZM19.5058 17.2843C18.2731 18.8167 16.3457 19.7106 14.3025 19.7106H9.7597L22.2097 5.63797C23.2245 4.49505 24.7297 3.83102 26.3165 3.83102H44.6918L42.1105 6.74259H28.9318L26.9567 8.74748L33.9309 8.76026L30.1578 13.0191H23.565L19.5058 17.2779V17.2843ZM44.6577 19.7106H31.6085C30.0693 19.7106 29.2247 18.0313 30.2054 16.9203L36.8254 9.39876C37.1659 9.00928 37.6836 8.77941 38.2216 8.77941H51.3459C52.8851 8.77941 53.7295 10.4651 52.742 11.5761L46.0539 19.0912C45.7066 19.4807 45.1957 19.7042 44.6577 19.7042V19.7106ZM67.3101 19.5446H51.0121C50.2221 19.5446 49.7862 18.6762 50.297 18.1079L57.9931 9.5073C58.4494 9.00288 59.1168 8.70917 59.8183 8.70917H76.8519L74.3047 11.6016H64.1976L59.9478 16.4606H70.0275L67.3101 19.5446ZM87.7967 19.7106H74.6657C73.1196 19.7106 72.2683 18.0186 73.2559 16.9012L79.9167 9.33491C80.264 8.93904 80.7749 8.71556 81.3197 8.71556H94.5257C96.0785 8.71556 96.923 10.414 95.9286 11.5314L89.1997 19.0976C88.8523 19.4871 88.3348 19.717 87.7967 19.717V19.7106Z" fill="#191919"/>
<path d="M80.1958 16.3074H84.7317L89.0497 11.3782H84.5069L80.1958 16.3074Z" fill="#191919"/>
<path d="M37.0977 16.3329H41.6063L45.8971 11.4292H41.3816L37.0977 16.3329Z" fill="#191919"/>
<path d="M56.3178 31.4781L59.621 27.6663L48.0497 27.6216C46.633 27.6216 45.2845 28.2026 44.3719 29.2178L38.2627 36.0243H44.8622L50.0588 30.0798H52.1496L50.8965 31.4781H56.3246H56.3178Z" fill="#191919"/>
<path d="M104.34 20.0999C103.25 20.0999 102.222 20.5596 101.541 21.3578L96.1124 27.6917H94.6618L85.4265 27.6726C84.6092 27.6726 83.8395 28.0046 83.3151 28.592L78.105 34.4024C77.5125 35.06 78.0164 36.0625 78.9359 36.0625L95.7651 36.0816L109.645 20.0488L104.333 20.0999H104.34ZM90.9431 33.5659H84.8475L87.6127 30.4756C87.8715 30.1691 88.2665 29.9903 88.6819 30.0031L94.0556 30.0414L90.9431 33.5659Z" fill="#191919"/>
<path d="M120.726 30.0096H128.497L130.513 27.6663H117.212C116.667 27.6663 116.157 27.8897 115.809 28.2792L110.095 34.8941C109.7 35.3347 110.034 35.9987 110.647 35.9987H123.185L125.276 33.6235H117.525L120.733 30.0032L120.726 30.0096Z" fill="#191919"/>
<path d="M157.572 20.0425C157.251 20.0425 156.952 20.1766 156.747 20.4064L155.276 22.0602H160.357L148.159 36.0178H153.036C154.098 36.0178 155.099 35.5773 155.787 34.8174L169 20.0425H157.572Z" fill="#191919"/>
<path d="M107.051 27.6663C106.24 27.6663 105.675 28.0047 105.15 28.5793L98.6802 35.9987H106.192L113.487 27.6663H107.051Z" fill="#191919"/>
<path d="M108.978 24.2758L107.33 26.153H113.351C114.42 26.153 115.435 25.7061 116.116 24.9271L117.015 23.9055H109.809C109.489 23.9055 109.182 24.0396 108.978 24.2694V24.2758Z" fill="#191919"/>
<path d="M64.6399 27.6663C63.2028 27.6663 62.0518 28.2665 61.1392 29.3072L55.282 36.0179H60.9962L63.0734 33.6299H69.9182L67.766 36.0179H73.8615L81.0877 27.6663H64.6467H64.6399ZM71.1781 31.9315H64.4764L66.3834 30.0479H72.9762L71.1781 31.9315Z" fill="#191919"/>
<path d="M135.86 27.6663C134.423 27.6663 133.068 28.2665 132.162 29.3072L126.304 36.0179H132.216L134.293 33.6299H141.138L138.986 36.0179H145.082L152.355 27.6663H135.867H135.86ZM142.398 31.9315H135.696L137.603 30.0479H144.196L142.398 31.9315Z" fill="#191919"/>
</svg>
