<svg xmlns="http://www.w3.org/2000/svg" width="19" height="18" viewBox="0 0 19 18" fill="none">
  <path fill-rule="evenodd" clip-rule="evenodd" d="M0.5 9C0.5 4.032 4.532 0 9.5 0C14.468 0 18.5 4.032 18.5 9C18.5 13.968 14.468 18 9.5 18C4.532 18 0.5 13.968 0.5 9ZM10.769 16.2V14.481C12.335 14.184 13.568 13.284 13.577 11.637C13.577 9.369 11.633 8.586 9.815 8.118C7.997 7.65 7.412 7.155 7.412 6.399C7.412 5.535 8.222 4.923 9.572 4.923C10.994 4.923 11.525 5.607 11.57 6.606H13.334C13.28 5.229 12.443 3.96 10.769 3.555V1.8H8.366V3.537C6.818 3.87 5.567 4.878 5.567 6.426C5.567 8.271 7.097 9.189 9.329 9.729C11.336 10.206 11.732 10.908 11.732 11.655C11.732 12.204 11.336 13.086 9.572 13.086C7.925 13.086 7.277 12.348 7.187 11.403H5.423C5.522 13.149 6.827 14.139 8.366 14.463V16.2H10.769Z" fill="url(#paint0_linear_1160_6304)"/>
  <defs>
    <linearGradient id="paint0_linear_1160_6304" x1="9.5" y1="0" x2="9.5" y2="18" gradientUnits="userSpaceOnUse">
      <stop stop-color="#707070"/>
      <stop offset="1"/>
    </linearGradient>
  </defs>
</svg>