<svg xmlns="http://www.w3.org/2000/svg" width="16" height="18" viewBox="0 0 16 18" fill="none">
  <path fill-rule="evenodd" clip-rule="evenodd" d="M14.2222 1.8H10.5067C10.1333 0.756 9.15556 0 8 0C6.84444 0 5.86667 0.756 5.49333 1.8H1.77778C0.8 1.8 0 2.61 0 3.6V16.2C0 17.19 0.8 18 1.77778 18H14.2222C15.2 18 16 17.19 16 16.2V3.6C16 2.61 15.2 1.8 14.2222 1.8ZM8 1.8C8.48889 1.8 8.88889 2.205 8.88889 2.7C8.88889 3.195 8.48889 3.6 8 3.6C7.51111 3.6 7.11111 3.195 7.11111 2.7C7.11111 2.205 7.51111 1.8 8 1.8ZM3.55556 14.4H9.77778V12.6H3.55556V14.4ZM12.4444 10.8H3.55556V9H12.4444V10.8ZM3.55556 7.2H12.4444V5.4H3.55556V7.2Z" fill="url(#paint0_linear_1160_7318)"/>
  <defs>
    <linearGradient id="paint0_linear_1160_7318" x1="8" y1="0" x2="8" y2="18" gradientUnits="userSpaceOnUse">
      <stop stop-color="#707070"/>
      <stop offset="1"/>
    </linearGradient>
  </defs>
</svg>