<svg width="25" height="23" viewBox="0 0 25 23" fill="none" xmlns="http://www.w3.org/2000/svg">
<g clip-path="url(#clip0_399_3488)">
<path d="M22.2273 12.5762C22.3502 12.5762 22.4499 12.4765 22.4499 12.3536V11.2626C22.4499 11.1398 22.3502 11.04 22.2273 11.04H18.4662V11.7966H18.0209V11.04H0.222651C0.0997594 11.04 0 11.1398 0 11.2626V12.3536C0 12.4765 0.0997594 12.5762 0.222651 12.5762C0.639906 12.5762 0.979377 12.9156 0.979377 13.3328C0.979377 13.7499 0.639906 14.0893 0.222651 14.0893C0.0997594 14.0893 0 14.189 0 14.3119V15.291C0 15.4139 0.0997594 15.5136 0.222651 15.5136C0.639906 15.5136 0.979377 15.853 0.979377 16.2701C0.979377 16.6873 0.639906 17.0267 0.222651 17.0267C0.0997594 17.0267 0 17.1264 0 17.2493V18.2284C0 18.3513 0.0997594 18.451 0.222651 18.451C0.639906 18.451 0.979377 18.7904 0.979377 19.2075C0.979377 19.6247 0.639906 19.9641 0.222651 19.9641C0.0997594 19.9641 0 20.0638 0 20.1867V21.2777C0 21.4005 0.0997594 21.5003 0.222651 21.5003H18.0212V20.7437H18.4665V21.5003H22.2276C22.3504 21.5003 22.4502 21.4005 22.4502 21.2777V20.1867C22.4502 20.0638 22.3504 19.9641 22.2276 19.9641C21.8103 19.9641 21.4708 19.6247 21.4708 19.2075C21.4708 18.7904 21.8103 18.451 22.2276 18.451C22.3504 18.451 22.4502 18.3513 22.4502 18.2284V17.2493C22.4502 17.1264 22.3504 17.0267 22.2276 17.0267C21.8103 17.0267 21.4708 16.6873 21.4708 16.2701C21.4708 15.853 21.8103 15.5136 22.2276 15.5136C22.3504 15.5136 22.4502 15.4139 22.4502 15.291V14.3119C22.4502 14.189 22.3504 14.0893 22.2276 14.0893C21.8103 14.0893 21.4708 13.7499 21.4708 13.3328C21.4708 12.9156 21.8103 12.5762 22.2276 12.5762H22.2273ZM16.0112 18.521C16.0112 18.6438 15.9115 18.7436 15.7886 18.7436H3.65669C3.5338 18.7436 3.43404 18.6438 3.43404 18.521V14.0196C3.43404 13.8968 3.5338 13.797 3.65669 13.797H15.7886C15.9115 13.797 16.0112 13.8968 16.0112 14.0196V18.521ZM18.4665 19.7496H18.0212V18.7554H18.4665V19.7496ZM18.4665 17.7615H18.0212V16.7674H18.4665V17.7615ZM18.4665 15.7735H18.0212V14.7793H18.4665V15.7735ZM18.4665 13.7855H18.0212V12.7913H18.4665V13.7855Z" fill="#191919"/>
<path d="M3.87939 14.2419V18.2984H15.566V14.2419H3.87939Z" fill="#191919"/>
<path d="M24.9829 10.8898L24.5654 9.88209C24.5183 9.76848 24.3881 9.71471 24.2745 9.76154C23.8891 9.92112 23.4455 9.73755 23.2856 9.3522C23.126 8.96685 23.3096 8.52339 23.695 8.36353C23.8087 8.31641 23.8625 8.18632 23.8156 8.07271L23.4409 7.16817C23.3937 7.05456 23.2636 7.00079 23.15 7.04762C22.7645 7.20719 22.321 7.02363 22.1611 6.63828C22.0014 6.25293 22.185 5.80947 22.5705 5.6499C22.6841 5.60278 22.7379 5.47269 22.6911 5.35908L22.3163 4.45453C22.2692 4.34092 22.1391 4.28715 22.0254 4.33399C21.64 4.49356 21.1964 4.30999 21.0365 3.92464C20.8769 3.53929 21.0605 3.09584 21.446 2.93626C21.5596 2.88914 21.6134 2.75905 21.5665 2.64544L21.149 1.6377C21.1019 1.52409 20.9717 1.47032 20.8581 1.51715L17.3836 2.95592L17.6733 3.65493L17.2621 3.8252L16.9724 3.12619L0.174072 10.0827H7.3793L15.9653 6.52727C16.0789 6.48015 16.209 6.53421 16.2562 6.64782L17.6794 10.083H22.7399C23.108 10.083 23.4076 10.3825 23.4076 10.7505V11.7834L24.8626 11.1809C24.9763 11.1338 25.0301 11.0037 24.9832 10.8901L24.9829 10.8898ZM17.643 4.74362L18.0541 4.57335L18.4347 5.49177L18.0235 5.66204L17.643 4.74362ZM18.404 6.58046L18.8152 6.41019L19.1957 7.32861L18.7846 7.49888L18.404 6.58046ZM19.5456 9.33572L19.1651 8.4173L19.5763 8.24703L19.9568 9.16545L19.5456 9.33572Z" fill="#191919"/>
<path d="M8.54248 10.0825L15.9299 7.02344L17.1975 10.0825H8.54248Z" fill="#191919"/>
</g>
<defs>
<clipPath id="clip0_399_3488">
<rect width="25" height="20" fill="white" transform="translate(0 1.5)"/>
</clipPath>
</defs>
</svg>
