<svg xmlns="http://www.w3.org/2000/svg" width="38" height="38" viewBox="0 0 38 38" fill="none">
  <rect width="38" height="38" rx="10" fill="#CECECE"/>
  <path fill-rule="evenodd" clip-rule="evenodd" d="M25.7758 9.964C25.6798 9.964 25.5838 9.94 25.4998 9.892C23.1958 8.704 21.2038 8.2 18.8158 8.2C16.4398 8.2 14.1838 8.764 12.1318 9.892C11.8438 10.048 11.4838 9.94 11.3158 9.652C11.1598 9.364 11.2678 8.992 11.5558 8.836C13.7878 7.624 16.2358 7 18.8158 7C21.3718 7 23.6038 7.564 26.0518 8.824C26.3518 8.98 26.4598 9.34 26.3038 9.628C26.1958 9.844 25.9918 9.964 25.7758 9.964ZM8.60379 16.264C8.48379 16.264 8.36379 16.228 8.25579 16.156C7.97979 15.964 7.91979 15.592 8.11179 15.316C9.29979 13.636 10.8118 12.316 12.6118 11.392C16.3798 9.448 21.2038 9.436 24.9838 11.38C26.7838 12.304 28.2958 13.612 29.4838 15.28C29.6758 15.544 29.6158 15.928 29.3398 16.12C29.0638 16.312 28.6918 16.252 28.4998 15.976C27.4198 14.464 26.0518 13.276 24.4318 12.448C20.9878 10.684 16.5838 10.684 13.1518 12.46C11.5198 13.3 10.1518 14.5 9.07179 16.012C8.97579 16.18 8.79579 16.264 8.60379 16.264ZM15.6838 30.568C15.7918 30.688 15.9478 30.748 16.1038 30.748C16.2598 30.748 16.4158 30.688 16.5478 30.568C16.7758 30.328 16.7758 29.956 16.5478 29.716C15.6238 28.78 15.0958 28.192 14.3278 26.812C13.5958 25.516 13.2118 23.92 13.2118 22.192C13.2118 19.288 15.7198 16.924 18.8038 16.924C21.8878 16.924 24.3958 19.288 24.3958 22.192C24.3958 22.528 24.6598 22.792 24.9958 22.792C25.3318 22.792 25.5958 22.528 25.5958 22.192C25.5958 18.628 22.5478 15.724 18.8038 15.724C15.0598 15.724 12.0118 18.628 12.0118 22.192C12.0118 24.124 12.4438 25.924 13.2718 27.4C14.0758 28.852 14.6398 29.524 15.6838 30.568ZM24.7078 28.528C23.2798 28.528 22.0198 28.168 20.9878 27.46C19.1998 26.248 18.1318 24.28 18.1318 22.192C18.1318 21.856 18.3958 21.592 18.7318 21.592C19.0678 21.592 19.3318 21.856 19.3318 22.192C19.3318 23.884 20.1958 25.48 21.6598 26.464C22.5118 27.04 23.5078 27.316 24.7078 27.316C24.9958 27.316 25.4758 27.28 25.9558 27.196C26.2798 27.136 26.5918 27.352 26.6518 27.688C26.7118 28.012 26.4958 28.324 26.1598 28.384C25.4758 28.516 24.8758 28.528 24.7078 28.528ZM22.1398 30.976C22.1878 30.988 22.2478 31 22.2958 31C22.5478 31 22.7998 30.82 22.8598 30.544C22.9438 30.232 22.7638 29.896 22.4398 29.812C20.7478 29.344 19.6558 28.72 18.5158 27.592C17.0638 26.152 16.2718 24.232 16.2718 22.18C16.2718 20.896 17.3878 19.852 18.7678 19.852C20.1478 19.852 21.2638 20.896 21.2638 22.18C21.2638 24.124 22.9198 25.708 24.9598 25.708C26.9998 25.708 28.6558 24.124 28.6558 22.18C28.6558 16.996 24.2158 12.784 18.7558 12.784C14.8798 12.784 11.3398 14.956 9.74379 18.304C9.20379 19.444 8.92779 20.752 8.92779 22.192C8.92779 23.812 9.21579 25.372 9.80379 26.944C9.91179 27.244 10.2598 27.412 10.5718 27.292C10.8838 27.184 11.0398 26.836 10.9198 26.524C10.1998 24.604 10.1158 23.128 10.1158 22.192C10.1158 20.944 10.3558 19.804 10.8238 18.832C12.2278 15.892 15.3478 13.996 18.7558 13.996C23.5558 13.996 27.4558 17.668 27.4558 22.192C27.4558 23.476 26.3398 24.52 24.9598 24.52C23.5798 24.52 22.4638 23.476 22.4638 22.192C22.4638 20.248 20.8078 18.664 18.7678 18.664C16.7278 18.664 15.0718 20.248 15.0718 22.192C15.0718 24.568 15.9958 26.788 17.6758 28.456C18.9838 29.74 20.2318 30.448 22.1398 30.976Z" fill="white"/>
</svg>