<svg xmlns="http://www.w3.org/2000/svg" width="38" height="38" viewBox="0 0 38 38" fill="none">
  <rect width="38" height="38" rx="10" fill="#CECECE"/>
  <path d="M22.8102 18.3425L30.4152 26.1686C30.7827 25.566 31.0003 24.8538 31.0003 24.0947V13.9208C31.0003 13.0521 30.7153 12.2538 30.2503 11.6042L22.8027 18.3425H22.8102Z" fill="white"/>
  <path d="M18.8125 19.8844L29.125 10.5478C28.57 10.2113 27.9325 10 27.25 10H10.7499C9.99994 10 9.30246 10.2348 8.70996 10.6417L18.805 19.8922L18.8125 19.8844Z" fill="white"/>
  <path d="M21.6703 19.3677L19.3003 21.512C19.1578 21.6373 18.9853 21.6999 18.8053 21.6999C18.6253 21.6999 18.4528 21.6372 18.3103 21.5042L16.1652 19.5399L8.68774 27.3425C9.28025 27.7573 9.99275 27.9999 10.7503 27.9999H27.2503C28.0378 27.9999 28.7728 27.7338 29.3803 27.2955L21.6703 19.3677Z" fill="white"/>
  <path d="M15.0325 18.5069L7.63748 11.7373C7.23248 12.3634 7 13.1069 7 13.913V24.0869C7 24.8852 7.23252 25.6208 7.63002 26.2391L15.04 18.5069H15.0325Z" fill="white"/>
</svg>