<svg xmlns="http://www.w3.org/2000/svg" width="38" height="38" viewBox="0 0 38 38" fill="none">
  <rect width="38" height="38" rx="10" fill="#CECECE"/>
  <path fill-rule="evenodd" clip-rule="evenodd" d="M19 7C12.376 7 7 12.376 7 19C7 25.624 12.376 31 19 31C25.624 31 31 25.624 31 19C31 12.376 25.624 7 19 7ZM19 10.6C20.992 10.6 22.6 12.208 22.6 14.2C22.6 16.192 20.992 17.8 19 17.8C17.008 17.8 15.4 16.192 15.4 14.2C15.4 12.208 17.008 10.6 19 10.6ZM11.8 23.776C13.348 26.104 16 27.64 19 27.64C22 27.64 24.652 26.104 26.2 23.776C26.164 21.388 21.388 20.08 19 20.08C16.6 20.08 11.836 21.388 11.8 23.776Z" fill="white"/>
</svg>