<svg xmlns="http://www.w3.org/2000/svg" width="38" height="38" viewBox="0 0 38 38" fill="none">
  <rect width="38" height="38" rx="10" fill="#CECECE"/>
  <path d="M25.48 16.0748V14.9721C25.48 11.6759 22.5765 9 19 9C15.4235 9 12.52 11.6759 12.52 14.9721V15.7574C12.52 15.8728 12.5513 15.9738 12.6061 16.0676C11.1348 16.2984 10 17.4813 10 18.9022V26.1149C10 27.7017 11.4087 29 13.1304 29H24.8696C26.5913 29 28 27.7017 28 26.1149V18.9022C28 17.5101 26.9122 16.3417 25.48 16.0748ZM14.0852 14.9721C14.0852 12.4765 16.2922 10.4425 19 10.4425C21.7078 10.4425 23.9148 12.4765 23.9148 14.9721V16.0171H14.0304C14.0617 15.9377 14.0852 15.844 14.0852 15.7574V14.9721ZM19.6417 22.761V24.355C19.6417 24.7517 19.2896 25.0763 18.8591 25.0763C18.4287 25.0763 18.0765 24.7517 18.0765 24.355V22.761C17.607 22.5085 17.2939 22.0541 17.2939 21.5204C17.2939 20.727 17.9983 20.0778 18.8591 20.0778C19.72 20.0778 20.4244 20.727 20.4244 21.5204C20.4244 22.0541 20.1113 22.5158 19.6417 22.761Z" fill="white"/>
</svg>