<svg xmlns="http://www.w3.org/2000/svg" width="38" height="38" viewBox="0 0 38 38" fill="none">
  <rect width="38" height="38" rx="10" fill="#CECECE"/>
  <path fill-rule="evenodd" clip-rule="evenodd" d="M23.4545 7H14.7273C13.2218 7 12 8.22182 12 9.72727V28.2727C12 29.7782 13.2218 31 14.7273 31H23.4545C24.96 31 26.1818 29.7782 26.1818 28.2727V9.72727C26.1818 8.22182 24.96 7 23.4545 7ZM19.0909 29.9091C18.1855 29.9091 17.4545 29.1782 17.4545 28.2727C17.4545 27.3673 18.1855 26.6364 19.0909 26.6364C19.9964 26.6364 20.7273 27.3673 20.7273 28.2727C20.7273 29.1782 19.9964 29.9091 19.0909 29.9091ZM14.1818 25.5455H24V10.2727H14.1818V25.5455Z" fill="white"/>
</svg>